<?xml version="1.0" encoding="utf-8"?>
<!-- Generator: Adobe Illustrator 20.0.0, SVG Export Plug-In . SVG Version: 6.00 Build 0)  -->
<svg version="1.1" id="Layer_1" xmlns="http://www.w3.org/2000/svg" xmlns:xlink="http://www.w3.org/1999/xlink" x="0px" y="0px"
	 viewBox="0 0 125.5 49.2" style="enable-background:new 0 0 125.5 49.2;" xml:space="preserve">
<style type="text/css">
	.st0{opacity:0.2;fill:#152A45;enable-background:new    ;}
	.st1{fill:#152A45;}
</style>
<g>
	<circle id="Halo_2_" class="st0" cx="100.9" cy="24.6" r="24.6"/>
	<path class="st1" d="M8.1,32.8c3.4,0,5.5-1.5,7-3.6l-3.3-2.3c-1,1.1-1.9,1.9-3.6,1.9c-2.2,0-3.7-1.8-3.7-4.2l0,0
		c0-2.3,1.5-4.1,3.7-4.1c1.5,0,2.5,0.7,3.4,1.8l3.3-2.5c-1.4-1.9-3.4-3.3-6.7-3.3c-4.8,0-8.2,3.6-8.2,8.2l0,0
		C0,29.4,3.6,32.8,8.1,32.8L8.1,32.8z M22.4,32.4h4.5l1.1-2.9h6l1.1,2.9h4.6l-6.7-15.7h-4.2L22.4,32.4z M29.2,26.2l1.8-4.4l1.8,4.4
		H29.2z M48.2,32.4h4.4v-4.8h1.9l3.1,4.8h4.9l-3.7-5.5c1.9-0.8,3.3-2.5,3.3-4.8l0,0c0-1.5-0.4-2.7-1.4-3.7c-1.1-1.1-2.7-1.6-5.1-1.6
		h-7.4v15.6H48.2z M52.6,24.3v-3.8h2.9c1.4,0,2.3,0.7,2.3,1.9l0,0c0,1.1-0.8,1.9-2.3,1.9H52.6z M75.2,32.4h4.4V20.5h4.6v-3.8H70.5
		v3.8h4.6V32.4z M100.9,32.8c4.5,0,8.2-3.7,8.2-8.2s-3.7-8.2-8.2-8.2c-4.5,0-8.2,3.7-8.2,8.2S96.4,32.8,100.9,32.8z"/>
</g>
</svg>
